<mxfile host="app.diagrams.net" agent="Mozilla/5.0 (Windows NT 10.0; Win64; x64) AppleWebKit/537.36 (KHTML, like Gecko) Chrome/130.0.0.0 Safari/537.36 Edg/130.0.0.0" version="25.0.1">
  <diagram name="Page-1" id="l4d5cmc3vVVvedQusu1V">
    <mxGraphModel dx="1662" dy="821" grid="1" gridSize="10" guides="1" tooltips="1" connect="1" arrows="1" fold="1" page="1" pageScale="1" pageWidth="827" pageHeight="1169" math="0" shadow="0">
      <root>
        <mxCell id="0" />
        <mxCell id="1" parent="0" />
        <mxCell id="MWVXec-m9bixA_ajwnnf-1" value="1" style="edgeStyle=orthogonalEdgeStyle;rounded=0;orthogonalLoop=1;jettySize=auto;html=1;endArrow=none;endFill=0;" edge="1" parent="1" source="MWVXec-m9bixA_ajwnnf-3" target="MWVXec-m9bixA_ajwnnf-23">
          <mxGeometry relative="1" as="geometry" />
        </mxCell>
        <mxCell id="MWVXec-m9bixA_ajwnnf-2" style="rounded=0;orthogonalLoop=1;jettySize=auto;html=1;exitX=0;exitY=1;exitDx=0;exitDy=0;entryX=0.5;entryY=0;entryDx=0;entryDy=0;endArrow=none;endFill=0;" edge="1" parent="1" source="MWVXec-m9bixA_ajwnnf-3" target="MWVXec-m9bixA_ajwnnf-32">
          <mxGeometry relative="1" as="geometry" />
        </mxCell>
        <mxCell id="MWVXec-m9bixA_ajwnnf-3" value="用户" style="rounded=0;whiteSpace=wrap;html=1;" vertex="1" parent="1">
          <mxGeometry x="360" y="360" width="120" height="80" as="geometry" />
        </mxCell>
        <mxCell id="MWVXec-m9bixA_ajwnnf-4" value="拥有" style="rhombus;whiteSpace=wrap;html=1;" vertex="1" parent="1">
          <mxGeometry x="440" y="240" width="40" height="80" as="geometry" />
        </mxCell>
        <mxCell id="MWVXec-m9bixA_ajwnnf-5" value="1" style="rounded=0;orthogonalLoop=1;jettySize=auto;html=1;exitX=0.5;exitY=1;exitDx=0;exitDy=0;entryX=0.5;entryY=0;entryDx=0;entryDy=0;endArrow=none;endFill=0;" edge="1" parent="1" source="MWVXec-m9bixA_ajwnnf-7" target="MWVXec-m9bixA_ajwnnf-4">
          <mxGeometry relative="1" as="geometry" />
        </mxCell>
        <mxCell id="MWVXec-m9bixA_ajwnnf-6" value="n" style="rounded=0;orthogonalLoop=1;jettySize=auto;html=1;exitX=1;exitY=0.5;exitDx=0;exitDy=0;entryX=0;entryY=0.5;entryDx=0;entryDy=0;endArrow=none;endFill=0;" edge="1" parent="1" source="MWVXec-m9bixA_ajwnnf-7" target="MWVXec-m9bixA_ajwnnf-10">
          <mxGeometry relative="1" as="geometry" />
        </mxCell>
        <mxCell id="MWVXec-m9bixA_ajwnnf-7" value="用户权限关联" style="rounded=0;whiteSpace=wrap;html=1;" vertex="1" parent="1">
          <mxGeometry x="440" y="120" width="120" height="80" as="geometry" />
        </mxCell>
        <mxCell id="MWVXec-m9bixA_ajwnnf-8" value="1" style="endArrow=none;html=1;rounded=0;entryX=0.5;entryY=1;entryDx=0;entryDy=0;endFill=0;" edge="1" parent="1" target="MWVXec-m9bixA_ajwnnf-4">
          <mxGeometry width="50" height="50" relative="1" as="geometry">
            <mxPoint x="420" y="360" as="sourcePoint" />
            <mxPoint x="450" y="380" as="targetPoint" />
            <Array as="points" />
            <mxPoint as="offset" />
          </mxGeometry>
        </mxCell>
        <mxCell id="MWVXec-m9bixA_ajwnnf-9" value="1" style="rounded=0;orthogonalLoop=1;jettySize=auto;html=1;exitX=1;exitY=0.5;exitDx=0;exitDy=0;entryX=0;entryY=0.5;entryDx=0;entryDy=0;endArrow=none;endFill=0;" edge="1" parent="1" source="MWVXec-m9bixA_ajwnnf-10" target="MWVXec-m9bixA_ajwnnf-12">
          <mxGeometry relative="1" as="geometry" />
        </mxCell>
        <mxCell id="MWVXec-m9bixA_ajwnnf-10" value="查询" style="rhombus;whiteSpace=wrap;html=1;" vertex="1" parent="1">
          <mxGeometry x="580" y="120" width="80" height="80" as="geometry" />
        </mxCell>
        <mxCell id="MWVXec-m9bixA_ajwnnf-11" value="1" style="rounded=0;orthogonalLoop=1;jettySize=auto;html=1;exitX=1;exitY=1;exitDx=0;exitDy=0;endArrow=none;endFill=0;entryX=0;entryY=0.5;entryDx=0;entryDy=0;" edge="1" parent="1" source="MWVXec-m9bixA_ajwnnf-7" target="MWVXec-m9bixA_ajwnnf-14">
          <mxGeometry relative="1" as="geometry" />
        </mxCell>
        <mxCell id="MWVXec-m9bixA_ajwnnf-12" value="权限组列表" style="rounded=0;whiteSpace=wrap;html=1;" vertex="1" parent="1">
          <mxGeometry x="700" y="120" width="120" height="80" as="geometry" />
        </mxCell>
        <mxCell id="MWVXec-m9bixA_ajwnnf-13" value="1" style="rounded=0;orthogonalLoop=1;jettySize=auto;html=1;exitX=0.5;exitY=1;exitDx=0;exitDy=0;entryX=0.5;entryY=0;entryDx=0;entryDy=0;endArrow=none;endFill=0;" edge="1" parent="1" source="MWVXec-m9bixA_ajwnnf-14" target="MWVXec-m9bixA_ajwnnf-15">
          <mxGeometry relative="1" as="geometry" />
        </mxCell>
        <mxCell id="MWVXec-m9bixA_ajwnnf-14" value="查询" style="rhombus;whiteSpace=wrap;html=1;" vertex="1" parent="1">
          <mxGeometry x="660" y="240" width="80" height="80" as="geometry" />
        </mxCell>
        <mxCell id="MWVXec-m9bixA_ajwnnf-15" value="游戏数据" style="rounded=0;whiteSpace=wrap;html=1;" vertex="1" parent="1">
          <mxGeometry x="640" y="360" width="120" height="80" as="geometry" />
        </mxCell>
        <mxCell id="MWVXec-m9bixA_ajwnnf-16" value="1" style="rounded=0;orthogonalLoop=1;jettySize=auto;html=1;exitX=1;exitY=0.5;exitDx=0;exitDy=0;entryX=0;entryY=0.5;entryDx=0;entryDy=0;endArrow=none;endFill=0;" edge="1" parent="1" source="MWVXec-m9bixA_ajwnnf-18" target="MWVXec-m9bixA_ajwnnf-15">
          <mxGeometry relative="1" as="geometry" />
        </mxCell>
        <mxCell id="MWVXec-m9bixA_ajwnnf-17" value="1" style="rounded=0;orthogonalLoop=1;jettySize=auto;html=1;exitX=0;exitY=0.5;exitDx=0;exitDy=0;entryX=1;entryY=0.5;entryDx=0;entryDy=0;endArrow=none;endFill=0;" edge="1" parent="1" source="MWVXec-m9bixA_ajwnnf-18" target="MWVXec-m9bixA_ajwnnf-3">
          <mxGeometry relative="1" as="geometry" />
        </mxCell>
        <mxCell id="MWVXec-m9bixA_ajwnnf-18" value="拥有" style="rhombus;whiteSpace=wrap;html=1;" vertex="1" parent="1">
          <mxGeometry x="520" y="360" width="80" height="80" as="geometry" />
        </mxCell>
        <mxCell id="MWVXec-m9bixA_ajwnnf-19" value="用户个人信息" style="rounded=0;whiteSpace=wrap;html=1;" vertex="1" parent="1">
          <mxGeometry x="360" y="600" width="120" height="80" as="geometry" />
        </mxCell>
        <mxCell id="MWVXec-m9bixA_ajwnnf-20" value="拥有" style="rhombus;whiteSpace=wrap;html=1;" vertex="1" parent="1">
          <mxGeometry x="380" y="480" width="80" height="80" as="geometry" />
        </mxCell>
        <mxCell id="MWVXec-m9bixA_ajwnnf-21" value="1" style="rounded=0;orthogonalLoop=1;jettySize=auto;html=1;exitX=0.5;exitY=1;exitDx=0;exitDy=0;entryX=0.5;entryY=0;entryDx=0;entryDy=0;endArrow=none;endFill=0;" edge="1" parent="1" target="MWVXec-m9bixA_ajwnnf-20">
          <mxGeometry relative="1" as="geometry">
            <mxPoint x="420" y="440" as="sourcePoint" />
          </mxGeometry>
        </mxCell>
        <mxCell id="MWVXec-m9bixA_ajwnnf-22" value="1" style="endArrow=none;html=1;rounded=0;entryX=0.5;entryY=1;entryDx=0;entryDy=0;" edge="1" parent="1" target="MWVXec-m9bixA_ajwnnf-20">
          <mxGeometry width="50" height="50" relative="1" as="geometry">
            <mxPoint x="420" y="600" as="sourcePoint" />
            <mxPoint x="450" y="620" as="targetPoint" />
          </mxGeometry>
        </mxCell>
        <mxCell id="MWVXec-m9bixA_ajwnnf-23" value="拥有" style="rhombus;whiteSpace=wrap;html=1;rounded=0;" vertex="1" parent="1">
          <mxGeometry x="240" y="360" width="80" height="80" as="geometry" />
        </mxCell>
        <mxCell id="MWVXec-m9bixA_ajwnnf-24" value="1" style="edgeStyle=orthogonalEdgeStyle;rounded=0;orthogonalLoop=1;jettySize=auto;html=1;endArrow=none;endFill=0;" edge="1" parent="1">
          <mxGeometry relative="1" as="geometry">
            <mxPoint x="240" y="399.5" as="sourcePoint" />
            <mxPoint x="200" y="399.5" as="targetPoint" />
          </mxGeometry>
        </mxCell>
        <mxCell id="MWVXec-m9bixA_ajwnnf-25" value="登陆记录" style="rounded=0;whiteSpace=wrap;html=1;" vertex="1" parent="1">
          <mxGeometry x="80" y="360" width="120" height="80" as="geometry" />
        </mxCell>
        <mxCell id="MWVXec-m9bixA_ajwnnf-26" style="rounded=0;orthogonalLoop=1;jettySize=auto;html=1;exitX=0.5;exitY=0;exitDx=0;exitDy=0;entryX=1;entryY=1;entryDx=0;entryDy=0;endArrow=none;endFill=0;" edge="1" parent="1" source="MWVXec-m9bixA_ajwnnf-27" target="MWVXec-m9bixA_ajwnnf-3">
          <mxGeometry relative="1" as="geometry" />
        </mxCell>
        <mxCell id="MWVXec-m9bixA_ajwnnf-27" value="用户标识ID" style="ellipse;whiteSpace=wrap;html=1;strokeWidth=3;" vertex="1" parent="1">
          <mxGeometry x="480" y="470" width="80" height="40" as="geometry" />
        </mxCell>
        <mxCell id="MWVXec-m9bixA_ajwnnf-28" style="rounded=0;orthogonalLoop=1;jettySize=auto;html=1;exitX=0.5;exitY=0;exitDx=0;exitDy=0;entryX=1;entryY=1;entryDx=0;entryDy=0;endArrow=none;endFill=0;" edge="1" parent="1" source="MWVXec-m9bixA_ajwnnf-29" target="MWVXec-m9bixA_ajwnnf-3">
          <mxGeometry relative="1" as="geometry" />
        </mxCell>
        <mxCell id="MWVXec-m9bixA_ajwnnf-29" value="注册时间" style="ellipse;whiteSpace=wrap;html=1;" vertex="1" parent="1">
          <mxGeometry x="560" y="470" width="80" height="40" as="geometry" />
        </mxCell>
        <mxCell id="MWVXec-m9bixA_ajwnnf-30" value="昵称" style="ellipse;whiteSpace=wrap;html=1;" vertex="1" parent="1">
          <mxGeometry x="280" y="470" width="80" height="40" as="geometry" />
        </mxCell>
        <mxCell id="MWVXec-m9bixA_ajwnnf-31" style="rounded=0;orthogonalLoop=1;jettySize=auto;html=1;exitX=0.5;exitY=0;exitDx=0;exitDy=0;entryX=0;entryY=1;entryDx=0;entryDy=0;endArrow=none;endFill=0;" edge="1" parent="1" source="MWVXec-m9bixA_ajwnnf-30" target="MWVXec-m9bixA_ajwnnf-3">
          <mxGeometry relative="1" as="geometry">
            <mxPoint x="530" y="480" as="sourcePoint" />
            <mxPoint x="490" y="450" as="targetPoint" />
            <Array as="points" />
          </mxGeometry>
        </mxCell>
        <mxCell id="MWVXec-m9bixA_ajwnnf-32" value="密码" style="ellipse;whiteSpace=wrap;html=1;" vertex="1" parent="1">
          <mxGeometry x="200" y="470" width="80" height="40" as="geometry" />
        </mxCell>
        <mxCell id="MWVXec-m9bixA_ajwnnf-33" style="rounded=0;orthogonalLoop=1;jettySize=auto;html=1;exitX=0.5;exitY=1;exitDx=0;exitDy=0;entryX=0;entryY=0;entryDx=0;entryDy=0;endArrow=none;endFill=0;" edge="1" parent="1" source="MWVXec-m9bixA_ajwnnf-34" target="MWVXec-m9bixA_ajwnnf-3">
          <mxGeometry relative="1" as="geometry" />
        </mxCell>
        <mxCell id="MWVXec-m9bixA_ajwnnf-34" value="账户" style="ellipse;whiteSpace=wrap;html=1;" vertex="1" parent="1">
          <mxGeometry x="280" y="290" width="80" height="40" as="geometry" />
        </mxCell>
        <mxCell id="MWVXec-m9bixA_ajwnnf-35" style="rounded=0;orthogonalLoop=1;jettySize=auto;html=1;exitX=0.5;exitY=1;exitDx=0;exitDy=0;entryX=0;entryY=0;entryDx=0;entryDy=0;endArrow=none;endFill=0;" edge="1" parent="1" source="MWVXec-m9bixA_ajwnnf-36" target="MWVXec-m9bixA_ajwnnf-3">
          <mxGeometry relative="1" as="geometry" />
        </mxCell>
        <mxCell id="MWVXec-m9bixA_ajwnnf-36" value="邮箱" style="ellipse;whiteSpace=wrap;html=1;" vertex="1" parent="1">
          <mxGeometry x="200" y="290" width="80" height="40" as="geometry" />
        </mxCell>
        <mxCell id="MWVXec-m9bixA_ajwnnf-37" value="虚拟货币" style="ellipse;whiteSpace=wrap;html=1;" vertex="1" parent="1">
          <mxGeometry x="480" y="290" width="80" height="40" as="geometry" />
        </mxCell>
        <mxCell id="MWVXec-m9bixA_ajwnnf-38" style="rounded=0;orthogonalLoop=1;jettySize=auto;html=1;exitX=0.5;exitY=1;exitDx=0;exitDy=0;endArrow=none;endFill=0;" edge="1" parent="1" source="MWVXec-m9bixA_ajwnnf-39">
          <mxGeometry relative="1" as="geometry">
            <mxPoint x="480" y="360" as="targetPoint" />
          </mxGeometry>
        </mxCell>
        <mxCell id="MWVXec-m9bixA_ajwnnf-39" value="电话" style="ellipse;whiteSpace=wrap;html=1;" vertex="1" parent="1">
          <mxGeometry x="560" y="290" width="80" height="40" as="geometry" />
        </mxCell>
        <mxCell id="MWVXec-m9bixA_ajwnnf-40" style="rounded=0;orthogonalLoop=1;jettySize=auto;html=1;exitX=0.5;exitY=1;exitDx=0;exitDy=0;entryX=1;entryY=0;entryDx=0;entryDy=0;endArrow=none;endFill=0;" edge="1" parent="1" source="MWVXec-m9bixA_ajwnnf-37" target="MWVXec-m9bixA_ajwnnf-3">
          <mxGeometry relative="1" as="geometry" />
        </mxCell>
        <mxCell id="MWVXec-m9bixA_ajwnnf-41" style="rounded=0;orthogonalLoop=1;jettySize=auto;html=1;exitX=0.5;exitY=0;exitDx=0;exitDy=0;entryX=0;entryY=1;entryDx=0;entryDy=0;endArrow=none;endFill=0;" edge="1" parent="1" source="MWVXec-m9bixA_ajwnnf-42" target="MWVXec-m9bixA_ajwnnf-25">
          <mxGeometry relative="1" as="geometry" />
        </mxCell>
        <mxCell id="MWVXec-m9bixA_ajwnnf-42" value="登录时间" style="ellipse;whiteSpace=wrap;html=1;" vertex="1" parent="1">
          <mxGeometry y="470" width="80" height="40" as="geometry" />
        </mxCell>
        <mxCell id="MWVXec-m9bixA_ajwnnf-43" style="rounded=0;orthogonalLoop=1;jettySize=auto;html=1;exitX=0.5;exitY=0;exitDx=0;exitDy=0;entryX=0;entryY=1;entryDx=0;entryDy=0;endArrow=none;endFill=0;" edge="1" parent="1" source="MWVXec-m9bixA_ajwnnf-44" target="MWVXec-m9bixA_ajwnnf-25">
          <mxGeometry relative="1" as="geometry" />
        </mxCell>
        <mxCell id="MWVXec-m9bixA_ajwnnf-44" value="用户标识ID" style="ellipse;whiteSpace=wrap;html=1;strokeWidth=3;" vertex="1" parent="1">
          <mxGeometry x="80" y="470" width="80" height="40" as="geometry" />
        </mxCell>
        <mxCell id="MWVXec-m9bixA_ajwnnf-45" style="rounded=0;orthogonalLoop=1;jettySize=auto;html=1;exitX=0.5;exitY=1;exitDx=0;exitDy=0;entryX=0;entryY=0;entryDx=0;entryDy=0;endArrow=none;endFill=0;" edge="1" parent="1" source="MWVXec-m9bixA_ajwnnf-46" target="MWVXec-m9bixA_ajwnnf-25">
          <mxGeometry relative="1" as="geometry" />
        </mxCell>
        <mxCell id="MWVXec-m9bixA_ajwnnf-46" value="登录ip" style="ellipse;whiteSpace=wrap;html=1;" vertex="1" parent="1">
          <mxGeometry y="290" width="80" height="40" as="geometry" />
        </mxCell>
        <mxCell id="MWVXec-m9bixA_ajwnnf-47" style="rounded=0;orthogonalLoop=1;jettySize=auto;html=1;exitX=0.5;exitY=0;exitDx=0;exitDy=0;entryX=0;entryY=1;entryDx=0;entryDy=0;endArrow=none;endFill=0;" edge="1" parent="1" source="MWVXec-m9bixA_ajwnnf-48" target="MWVXec-m9bixA_ajwnnf-19">
          <mxGeometry relative="1" as="geometry" />
        </mxCell>
        <mxCell id="MWVXec-m9bixA_ajwnnf-48" value="用户标识ID" style="ellipse;whiteSpace=wrap;html=1;strokeWidth=3;" vertex="1" parent="1">
          <mxGeometry x="220" y="700" width="80" height="40" as="geometry" />
        </mxCell>
        <mxCell id="MWVXec-m9bixA_ajwnnf-49" style="rounded=0;orthogonalLoop=1;jettySize=auto;html=1;exitX=0.5;exitY=0;exitDx=0;exitDy=0;entryX=0;entryY=1;entryDx=0;entryDy=0;endArrow=none;endFill=0;" edge="1" parent="1" source="MWVXec-m9bixA_ajwnnf-50" target="MWVXec-m9bixA_ajwnnf-19">
          <mxGeometry relative="1" as="geometry" />
        </mxCell>
        <mxCell id="MWVXec-m9bixA_ajwnnf-50" value="生日" style="ellipse;whiteSpace=wrap;html=1;" vertex="1" parent="1">
          <mxGeometry x="300" y="700" width="80" height="40" as="geometry" />
        </mxCell>
        <mxCell id="MWVXec-m9bixA_ajwnnf-51" style="rounded=0;orthogonalLoop=1;jettySize=auto;html=1;exitX=0.5;exitY=0;exitDx=0;exitDy=0;entryX=0.5;entryY=1;entryDx=0;entryDy=0;endArrow=none;endFill=0;" edge="1" parent="1" source="MWVXec-m9bixA_ajwnnf-52" target="MWVXec-m9bixA_ajwnnf-19">
          <mxGeometry relative="1" as="geometry" />
        </mxCell>
        <mxCell id="MWVXec-m9bixA_ajwnnf-52" value="性别" style="ellipse;whiteSpace=wrap;html=1;" vertex="1" parent="1">
          <mxGeometry x="380" y="700" width="80" height="40" as="geometry" />
        </mxCell>
        <mxCell id="MWVXec-m9bixA_ajwnnf-53" style="rounded=0;orthogonalLoop=1;jettySize=auto;html=1;exitX=0.5;exitY=0;exitDx=0;exitDy=0;endArrow=none;endFill=0;" edge="1" parent="1" source="MWVXec-m9bixA_ajwnnf-54">
          <mxGeometry relative="1" as="geometry">
            <mxPoint x="480" y="680" as="targetPoint" />
          </mxGeometry>
        </mxCell>
        <mxCell id="MWVXec-m9bixA_ajwnnf-54" value="姓名" style="ellipse;whiteSpace=wrap;html=1;" vertex="1" parent="1">
          <mxGeometry x="460" y="700" width="80" height="40" as="geometry" />
        </mxCell>
        <mxCell id="MWVXec-m9bixA_ajwnnf-55" style="rounded=0;orthogonalLoop=1;jettySize=auto;html=1;exitX=0.5;exitY=0;exitDx=0;exitDy=0;endArrow=none;endFill=0;entryX=1;entryY=1;entryDx=0;entryDy=0;" edge="1" parent="1" source="MWVXec-m9bixA_ajwnnf-56" target="MWVXec-m9bixA_ajwnnf-19">
          <mxGeometry relative="1" as="geometry">
            <mxPoint x="560" y="680" as="targetPoint" />
          </mxGeometry>
        </mxCell>
        <mxCell id="MWVXec-m9bixA_ajwnnf-56" value="个人简介" style="ellipse;whiteSpace=wrap;html=1;" vertex="1" parent="1">
          <mxGeometry x="540" y="700" width="80" height="40" as="geometry" />
        </mxCell>
        <mxCell id="MWVXec-m9bixA_ajwnnf-57" style="rounded=0;orthogonalLoop=1;jettySize=auto;html=1;exitX=0.5;exitY=0;exitDx=0;exitDy=0;entryX=1;entryY=1;entryDx=0;entryDy=0;endArrow=none;endFill=0;" edge="1" parent="1" source="MWVXec-m9bixA_ajwnnf-58" target="MWVXec-m9bixA_ajwnnf-15">
          <mxGeometry relative="1" as="geometry" />
        </mxCell>
        <mxCell id="MWVXec-m9bixA_ajwnnf-58" value="用户标识ID" style="ellipse;whiteSpace=wrap;html=1;strokeWidth=3;perimeterSpacing=1;" vertex="1" parent="1">
          <mxGeometry x="760" y="470" width="80" height="40" as="geometry" />
        </mxCell>
        <mxCell id="MWVXec-m9bixA_ajwnnf-59" style="rounded=0;orthogonalLoop=1;jettySize=auto;html=1;exitX=0.5;exitY=0;exitDx=0;exitDy=0;entryX=1;entryY=1;entryDx=0;entryDy=0;endArrow=none;endFill=0;" edge="1" parent="1" source="MWVXec-m9bixA_ajwnnf-60" target="MWVXec-m9bixA_ajwnnf-15">
          <mxGeometry relative="1" as="geometry" />
        </mxCell>
        <mxCell id="MWVXec-m9bixA_ajwnnf-60" value="白名单状态" style="ellipse;whiteSpace=wrap;html=1;" vertex="1" parent="1">
          <mxGeometry x="840" y="470" width="80" height="40" as="geometry" />
        </mxCell>
        <mxCell id="MWVXec-m9bixA_ajwnnf-61" style="rounded=0;orthogonalLoop=1;jettySize=auto;html=1;exitX=0.5;exitY=1;exitDx=0;exitDy=0;entryX=1;entryY=0;entryDx=0;entryDy=0;endArrow=none;endFill=0;" edge="1" parent="1" source="MWVXec-m9bixA_ajwnnf-62" target="MWVXec-m9bixA_ajwnnf-15">
          <mxGeometry relative="1" as="geometry" />
        </mxCell>
        <mxCell id="MWVXec-m9bixA_ajwnnf-62" value="玩家uuid" style="ellipse;whiteSpace=wrap;html=1;strokeWidth=1;" vertex="1" parent="1">
          <mxGeometry x="760" y="290" width="80" height="40" as="geometry" />
        </mxCell>
        <mxCell id="MWVXec-m9bixA_ajwnnf-63" style="rounded=0;orthogonalLoop=1;jettySize=auto;html=1;exitX=0.5;exitY=1;exitDx=0;exitDy=0;entryX=1;entryY=0;entryDx=0;entryDy=0;endArrow=none;endFill=0;" edge="1" parent="1" source="MWVXec-m9bixA_ajwnnf-64" target="MWVXec-m9bixA_ajwnnf-15">
          <mxGeometry relative="1" as="geometry" />
        </mxCell>
        <mxCell id="MWVXec-m9bixA_ajwnnf-64" value="玩家名" style="ellipse;whiteSpace=wrap;html=1;strokeWidth=1;" vertex="1" parent="1">
          <mxGeometry x="840" y="290" width="80" height="40" as="geometry" />
        </mxCell>
        <mxCell id="MWVXec-m9bixA_ajwnnf-65" style="rounded=0;orthogonalLoop=1;jettySize=auto;html=1;exitX=0.5;exitY=1;exitDx=0;exitDy=0;entryX=0.5;entryY=0;entryDx=0;entryDy=0;endArrow=none;endFill=0;" edge="1" parent="1" source="MWVXec-m9bixA_ajwnnf-66" target="MWVXec-m9bixA_ajwnnf-7">
          <mxGeometry relative="1" as="geometry" />
        </mxCell>
        <mxCell id="MWVXec-m9bixA_ajwnnf-66" value="用户标识ID" style="ellipse;whiteSpace=wrap;html=1;strokeWidth=3;perimeterSpacing=1;" vertex="1" parent="1">
          <mxGeometry x="360" y="40" width="80" height="40" as="geometry" />
        </mxCell>
        <mxCell id="MWVXec-m9bixA_ajwnnf-67" style="rounded=0;orthogonalLoop=1;jettySize=auto;html=1;exitX=0.5;exitY=1;exitDx=0;exitDy=0;entryX=0.5;entryY=0;entryDx=0;entryDy=0;endArrow=none;endFill=0;" edge="1" parent="1" source="MWVXec-m9bixA_ajwnnf-68" target="MWVXec-m9bixA_ajwnnf-7">
          <mxGeometry relative="1" as="geometry">
            <mxPoint x="480" y="120" as="targetPoint" />
          </mxGeometry>
        </mxCell>
        <mxCell id="MWVXec-m9bixA_ajwnnf-68" value="权限组ID" style="ellipse;whiteSpace=wrap;html=1;strokeWidth=1;" vertex="1" parent="1">
          <mxGeometry x="440" y="40" width="80" height="40" as="geometry" />
        </mxCell>
        <mxCell id="MWVXec-m9bixA_ajwnnf-69" style="rounded=0;orthogonalLoop=1;jettySize=auto;html=1;exitX=0.5;exitY=1;exitDx=0;exitDy=0;entryX=0;entryY=0;entryDx=0;entryDy=0;endArrow=none;endFill=0;" edge="1" parent="1" source="MWVXec-m9bixA_ajwnnf-70">
          <mxGeometry relative="1" as="geometry">
            <mxPoint x="760" y="120" as="targetPoint" />
          </mxGeometry>
        </mxCell>
        <mxCell id="MWVXec-m9bixA_ajwnnf-70" value="权限组ID" style="ellipse;whiteSpace=wrap;html=1;strokeWidth=3;" vertex="1" parent="1">
          <mxGeometry x="600" y="40" width="80" height="40" as="geometry" />
        </mxCell>
        <mxCell id="MWVXec-m9bixA_ajwnnf-71" style="rounded=0;orthogonalLoop=1;jettySize=auto;html=1;exitX=0.5;exitY=1;exitDx=0;exitDy=0;entryX=0.5;entryY=0;entryDx=0;entryDy=0;endArrow=none;endFill=0;" edge="1" parent="1" source="MWVXec-m9bixA_ajwnnf-72" target="MWVXec-m9bixA_ajwnnf-12">
          <mxGeometry relative="1" as="geometry" />
        </mxCell>
        <mxCell id="MWVXec-m9bixA_ajwnnf-72" value="权限组名" style="ellipse;whiteSpace=wrap;html=1;" vertex="1" parent="1">
          <mxGeometry x="680" y="40" width="80" height="40" as="geometry" />
        </mxCell>
        <mxCell id="MWVXec-m9bixA_ajwnnf-73" style="edgeStyle=orthogonalEdgeStyle;rounded=0;orthogonalLoop=1;jettySize=auto;html=1;exitX=0;exitY=0.5;exitDx=0;exitDy=0;entryX=1;entryY=0.5;entryDx=0;entryDy=0;strokeColor=none;endArrow=none;endFill=0;" edge="1" parent="1" source="MWVXec-m9bixA_ajwnnf-74" target="MWVXec-m9bixA_ajwnnf-15">
          <mxGeometry relative="1" as="geometry" />
        </mxCell>
        <mxCell id="MWVXec-m9bixA_ajwnnf-74" value="白名单通过时间" style="ellipse;whiteSpace=wrap;html=1;strokeWidth=1;" vertex="1" parent="1">
          <mxGeometry x="850" y="380" width="100" height="40" as="geometry" />
        </mxCell>
        <mxCell id="MWVXec-m9bixA_ajwnnf-75" style="rounded=0;orthogonalLoop=1;jettySize=auto;html=1;exitX=0;exitY=0.5;exitDx=0;exitDy=0;endArrow=none;endFill=0;entryX=1;entryY=0.5;entryDx=0;entryDy=0;" edge="1" parent="1" source="MWVXec-m9bixA_ajwnnf-74" target="MWVXec-m9bixA_ajwnnf-15">
          <mxGeometry relative="1" as="geometry">
            <mxPoint x="770" y="370" as="targetPoint" />
            <mxPoint x="970" y="340" as="sourcePoint" />
          </mxGeometry>
        </mxCell>
        <mxCell id="MWVXec-m9bixA_ajwnnf-76" value="ip属地" style="ellipse;whiteSpace=wrap;html=1;" vertex="1" parent="1">
          <mxGeometry x="80" y="290" width="80" height="40" as="geometry" />
        </mxCell>
        <mxCell id="MWVXec-m9bixA_ajwnnf-77" style="rounded=0;orthogonalLoop=1;jettySize=auto;html=1;entryX=0.5;entryY=1;entryDx=0;entryDy=0;endArrow=none;endFill=0;" edge="1" parent="1" target="MWVXec-m9bixA_ajwnnf-76">
          <mxGeometry relative="1" as="geometry">
            <mxPoint x="80" y="360" as="sourcePoint" />
            <mxPoint x="90" y="370" as="targetPoint" />
          </mxGeometry>
        </mxCell>
        <mxCell id="MWVXec-m9bixA_ajwnnf-78" value="用户QQ关联" style="rounded=0;whiteSpace=wrap;html=1;" vertex="1" parent="1">
          <mxGeometry x="280" y="120" width="120" height="80" as="geometry" />
        </mxCell>
        <mxCell id="MWVXec-m9bixA_ajwnnf-79" value="拥有" style="rhombus;whiteSpace=wrap;html=1;" vertex="1" parent="1">
          <mxGeometry x="360" y="240" width="40" height="80" as="geometry" />
        </mxCell>
        <mxCell id="MWVXec-m9bixA_ajwnnf-80" value="1" style="rounded=0;orthogonalLoop=1;jettySize=auto;html=1;exitX=0.5;exitY=1;exitDx=0;exitDy=0;entryX=0.5;entryY=0;entryDx=0;entryDy=0;endArrow=none;endFill=0;" edge="1" parent="1" source="MWVXec-m9bixA_ajwnnf-78" target="MWVXec-m9bixA_ajwnnf-79">
          <mxGeometry relative="1" as="geometry">
            <mxPoint x="484" y="210" as="sourcePoint" />
            <mxPoint x="450" y="250" as="targetPoint" />
          </mxGeometry>
        </mxCell>
        <mxCell id="MWVXec-m9bixA_ajwnnf-81" value="1" style="rounded=0;orthogonalLoop=1;jettySize=auto;html=1;exitX=0.5;exitY=1;exitDx=0;exitDy=0;endArrow=none;endFill=0;" edge="1" parent="1" source="MWVXec-m9bixA_ajwnnf-79">
          <mxGeometry relative="1" as="geometry">
            <mxPoint x="340" y="210" as="sourcePoint" />
            <mxPoint x="420" y="360" as="targetPoint" />
          </mxGeometry>
        </mxCell>
        <mxCell id="MWVXec-m9bixA_ajwnnf-82" value="用户标识ID" style="ellipse;whiteSpace=wrap;html=1;strokeWidth=3;perimeterSpacing=1;" vertex="1" parent="1">
          <mxGeometry x="160" y="40" width="80" height="40" as="geometry" />
        </mxCell>
        <mxCell id="MWVXec-m9bixA_ajwnnf-83" style="rounded=0;orthogonalLoop=1;jettySize=auto;html=1;exitX=0.5;exitY=1;exitDx=0;exitDy=0;entryX=0.5;entryY=0;entryDx=0;entryDy=0;endArrow=none;endFill=0;" edge="1" parent="1" source="MWVXec-m9bixA_ajwnnf-82" target="MWVXec-m9bixA_ajwnnf-78">
          <mxGeometry relative="1" as="geometry">
            <mxPoint x="464" y="91" as="sourcePoint" />
            <mxPoint x="510" y="130" as="targetPoint" />
          </mxGeometry>
        </mxCell>
        <mxCell id="MWVXec-m9bixA_ajwnnf-84" value="QQID" style="ellipse;whiteSpace=wrap;html=1;strokeWidth=1;" vertex="1" parent="1">
          <mxGeometry x="240" y="40" width="80" height="40" as="geometry" />
        </mxCell>
        <mxCell id="MWVXec-m9bixA_ajwnnf-85" style="rounded=0;orthogonalLoop=1;jettySize=auto;html=1;entryX=0.615;entryY=0.992;entryDx=0;entryDy=0;endArrow=none;endFill=0;entryPerimeter=0;" edge="1" parent="1" target="MWVXec-m9bixA_ajwnnf-84">
          <mxGeometry relative="1" as="geometry">
            <mxPoint x="340" y="120" as="sourcePoint" />
            <mxPoint x="350" y="130" as="targetPoint" />
          </mxGeometry>
        </mxCell>
      </root>
    </mxGraphModel>
  </diagram>
</mxfile>
